<?xml version="1.0" standalone="no"?>
<!DOCTYPE svg PUBLIC "-//W3C//DTD SVG 20010904//EN"
 "http://www.w3.org/TR/2001/REC-SVG-20010904/DTD/svg10.dtd">
<svg version="1.0" xmlns="http://www.w3.org/2000/svg"
 width="1200.000000pt" height="1200.000000pt" viewBox="0 0 1200.000000 1200.000000"
 preserveAspectRatio="xMidYMid meet">
<metadata>
Created by potrace 1.14, written by Peter Selinger 2001-2017
</metadata>
<g transform="translate(0.000000,1200.000000) scale(0.100000,-0.100000)"
fill="#000000" stroke="none">
<path d="M4628 10190 c-107 -270 -261 -665 -429 -1095 -61 -154 -145 -370
-189 -480 -90 -229 -347 -886 -410 -1050 -24 -60 -80 -205 -126 -321 -45 -115
-115 -293 -154 -395 -40 -101 -112 -287 -162 -414 -49 -126 -123 -318 -164
-425 -41 -107 -83 -215 -93 -240 -17 -39 -29 -70 -36 -90 -1 -3 -7 -18 -14
-35 -7 -16 -14 -34 -16 -40 -1 -5 -7 -21 -12 -35 -6 -14 -9 -28 -6 -32 2 -5
-1 -8 -7 -8 -6 0 -9 -4 -5 -9 3 -5 1 -12 -5 -16 -6 -4 -8 -10 -5 -15 3 -5 1
-11 -5 -15 -6 -4 -8 -11 -5 -16 4 -5 1 -9 -4 -9 -6 0 -11 -6 -11 -14 0 -8 -5
-27 -12 -43 -6 -15 -12 -32 -13 -38 -1 -12 -8 -29 -40 -107 -19 -46 -21 -58
-9 -58 8 0 14 -4 14 -10 0 -5 -6 -7 -14 -4 -16 6 -21 0 -30 -39 -6 -25 -5 -27
12 -18 11 6 23 7 28 3 5 -4 0 4 -11 17 l-20 24 23 -12 c19 -10 23 -10 21 1 -3
25 1 51 7 45 4 -4 22 19 40 50 36 59 40 68 24 58 -5 -3 -10 -1 -10 4 0 6 6 11
14 11 8 0 17 13 21 30 4 16 10 32 14 35 10 6 131 251 131 265 0 5 5 10 10 10
6 0 10 7 10 15 0 18 62 149 73 153 4 2 7 11 7 21 0 9 4 21 9 26 5 6 32 53 59
105 106 206 132 243 166 238 10 -2 21 3 23 10 3 6 0 12 -6 12 -6 0 -11 8 -11
18 1 15 2 15 15 -2 14 -19 16 -19 34 -2 11 10 18 23 17 29 -2 7 -1 9 1 4 3 -4
9 -5 14 -2 8 6 7 -4 -7 -42 -9 -23 -12 -54 -6 -48 7 7 41 92 239 595 96 245
203 517 238 605 67 171 224 572 310 795 81 208 366 937 528 1350 46 118 119
303 161 412 l77 196 -26 27 c-14 16 -25 33 -25 38 0 6 -12 0 -26 -14 l-26 -24
17 36 c9 20 22 36 29 36 6 0 20 4 30 9 14 5 17 4 12 -4 -9 -15 -5 -15 31 -1
29 12 151 26 518 59 319 29 372 37 450 62 l70 23 -70 5 c-50 3 -20 6 105 10
l175 6 -250 3 c-137 2 -466 6 -730 10 l-481 6 -96 -245z m202 -101 c0 -6 -4
-7 -10 -4 -5 3 -10 11 -10 16 0 6 5 7 10 4 6 -3 10 -11 10 -16z m-45 -36 c-15
-15 -25 -23 -22 -17 4 6 11 24 17 39 8 20 14 25 22 17 7 -7 3 -18 -17 -39z
m-38 -98 c0 -8 -4 -12 -9 -9 -5 3 -6 10 -3 15 9 13 12 11 12 -6z m-1339 -3615
c-7 -10 -14 -17 -17 -15 -4 4 18 35 25 35 2 0 -1 -9 -8 -20z"/>
<path d="M7365 10416 c-40 -53 -188 -283 -188 -291 0 -10 266 -676 628 -1570
113 -280 218 -540 233 -577 14 -37 28 -65 30 -63 3 2 -3 22 -12 45 -9 22 -15
41 -15 43 1 2 -10 30 -52 125 -12 29 -23 60 -24 70 -2 15 -53 168 -72 212 -3
8 -7 20 -7 25 -2 15 -27 97 -36 120 -5 11 -14 45 -21 75 -6 30 -14 62 -17 70
-5 15 -9 40 -16 96 -4 33 17 59 76 96 23 15 27 15 32 2 3 -9 11 -12 18 -8 8 5
9 2 5 -10 -5 -14 -3 -17 8 -12 9 3 15 0 15 -9 0 -8 5 -15 10 -15 6 0 10 -6 10
-14 0 -7 7 -20 16 -27 26 -22 94 -182 339 -801 74 -189 147 -369 160 -402 14
-32 22 -62 19 -67 -3 -5 0 -9 5 -9 6 0 11 -16 11 -36 0 -19 3 -33 8 -31 4 3 8
-9 9 -26 1 -18 4 -51 8 -75 7 -51 -9 -95 -42 -113 -13 -7 -23 -18 -23 -26 0
-22 -40 -14 -65 13 -14 15 -25 31 -25 36 0 5 -6 6 -12 2 -7 -4 -10 -4 -6 1 8
9 -36 99 -63 128 -10 12 -19 23 -20 26 -4 36 -12 58 -24 71 -8 9 -15 22 -15
28 0 7 -4 12 -10 12 -5 0 -10 7 -10 15 0 9 -10 35 -22 58 -13 23 -23 47 -23
52 -1 6 -9 25 -18 43 -10 17 -15 32 -12 32 4 0 -1 7 -9 16 -9 8 -14 20 -11 25
4 5 1 9 -4 9 -6 0 -11 7 -11 16 0 19 -40 108 -46 102 -6 -7 1379 -3462 1397
-3484 5 -6 5 -15 1 -19 -4 -5 -2 -5 5 -2 8 5 3 30 -18 88 -16 45 -26 85 -23
90 3 5 0 9 -7 9 -8 0 -7 5 2 17 8 9 9 14 3 10 -7 -4 -12 7 -13 31 -1 20 -3 42
-3 47 -3 40 27 93 67 122 26 19 45 27 45 20 1 -7 6 -5 14 6 12 15 15 16 26 2
7 -9 10 -18 6 -22 -3 -3 -6 -1 -6 5 0 7 -5 12 -12 12 -6 0 3 -14 20 -31 18
-17 32 -38 32 -45 0 -8 4 -14 9 -14 12 0 -8 55 -174 475 -171 435 -195 495
-195 500 0 2 -13 33 -29 67 -15 35 -32 74 -36 88 -10 33 -108 287 -145 375
-16 39 -50 124 -75 190 -26 66 -80 203 -120 305 -41 102 -122 307 -180 455
-59 149 -221 556 -360 905 -139 349 -405 1015 -590 1480 -185 465 -338 846
-339 847 -1 1 -6 -4 -11 -11z"/>
<path d="M4956 10081 c-10 -15 -467 -1184 -497 -1268 -10 -29 -14 -53 -9 -53
5 0 11 14 15 30 4 17 11 28 16 24 5 -3 9 0 9 6 0 7 7 10 15 6 8 -3 15 0 15 6
0 7 4 7 13 -1 8 -6 17 -7 23 -1 12 11 307 14 494 4 80 -4 189 -6 243 -5 64 1
97 -1 97 -9 0 -7 21 -8 65 -4 39 4 65 3 65 -3 0 -5 102 -10 258 -10 141 -1
295 -6 342 -13 47 -6 147 -12 223 -13 75 -1 137 -5 137 -10 0 -5 60 -8 133 -7
72 1 197 -1 277 -5 80 -4 179 -7 220 -6 41 0 89 -3 105 -9 17 -5 105 -11 197
-14 91 -3 175 -9 185 -14 10 -5 35 -17 56 -27 23 -11 36 -24 35 -34 -2 -9 3
-15 10 -13 6 1 12 -6 12 -15 1 -10 7 -29 16 -43 l15 -25 -7 25 c-3 14 -139
359 -302 768 l-295 742 -1088 0 c-611 0 -1090 -4 -1093 -9z m671 -1267 c-3 -3
-12 -4 -19 -1 -8 3 -5 6 6 6 11 1 17 -2 13 -5z m1993 -84 c0 -5 -2 -10 -4 -10
-3 0 -8 5 -11 10 -3 6 -1 10 4 10 6 0 11 -4 11 -10z"/>
<path d="M3350 6165 c-6 -8 -10 -19 -8 -26 2 -6 9 0 16 15 13 29 10 33 -8 11z"/>
<path d="M3326 6103 c-6 -14 -5 -15 5 -6 7 7 10 15 7 18 -3 3 -9 -2 -12 -12z"/>
<path d="M8073 5760 c-110 -12 -209 -36 -417 -101 -214 -67 -346 -94 -425 -86
-36 4 -91 24 -170 61 -115 55 -236 90 -292 84 l-27 -3 134 -375 c74 -206 135
-387 136 -402 3 -62 66 -58 -966 -58 -719 0 -945 3 -954 12 -7 7 -12 20 -12
30 0 9 42 138 94 285 52 147 93 269 91 271 -8 9 -51 -13 -135 -69 -50 -33
-109 -67 -131 -75 -96 -33 -193 -8 -397 105 -269 149 -468 229 -587 238 -39 2
-128 -3 -200 -12 -71 -9 -236 -19 -367 -22 l-236 -6 -65 -166 c-36 -91 -230
-587 -432 -1101 -347 -884 -621 -1587 -632 -1620 -3 -8 6 1 20 20 14 19 23 38
20 43 -2 4 1 7 7 7 7 0 10 6 8 13 -5 13 36 59 45 51 3 -3 8 4 12 16 4 13 12
19 21 16 8 -3 14 1 14 10 0 8 4 13 9 9 6 -3 13 0 18 8 4 7 40 21 78 31 91 22
281 21 294 -2 6 -11 11 2 16 38 9 63 62 169 102 204 35 32 54 34 25 3 l-22
-23 24 1 c14 0 35 9 48 21 38 35 55 39 20 5 -45 -45 -72 -102 -71 -153 1 -73
9 -83 62 -79 40 2 47 0 48 -16 0 -10 6 -1 12 20 12 36 84 137 99 137 13 0 40
-110 36 -141 -3 -17 -1 -32 4 -35 5 -3 7 0 6 8 -2 9 10 13 45 13 43 0 48 3 62
32 22 47 19 111 -9 160 -28 48 -24 58 13 39 14 -7 51 -14 81 -15 l55 -2 -30
25 c-16 14 -24 25 -18 26 19 0 91 -96 103 -138 5 -20 13 -61 17 -91 4 -36 9
-48 14 -38 13 23 739 25 771 2 13 -8 35 -15 50 -15 18 0 28 -5 28 -15 0 -7 6
-18 14 -22 8 -4 16 -15 18 -23 2 -8 5 -17 8 -20 14 -14 40 -71 40 -88 0 -11 7
-25 15 -32 9 -7 13 -20 10 -28 -3 -8 -1 -20 5 -27 10 -12 -9 -123 -30 -172 -5
-13 -6 -23 -2 -23 4 0 47 118 96 263 133 389 130 381 157 394 19 10 348 13
1499 13 1151 0 1480 -3 1499 -13 20 -10 40 -59 124 -304 56 -161 104 -293 109
-293 4 0 3 12 -2 26 -6 14 -8 30 -4 35 3 5 0 9 -7 9 -15 0 -4 79 17 118 7 15
14 34 14 42 0 45 81 160 113 160 8 0 18 7 21 16 3 8 10 13 15 9 5 -3 12 -2 14
2 3 5 158 6 346 3 l340 -5 11 49 c14 68 53 136 108 187 43 42 44 42 22 10 -20
-29 -21 -33 -6 -28 10 4 15 3 11 -3 -13 -20 12 -9 33 15 12 14 27 25 33 25 7
0 0 -11 -14 -24 -58 -54 -81 -142 -56 -215 9 -25 14 -29 25 -20 7 6 19 9 26 6
7 -2 22 0 32 5 16 9 18 7 13 -11 -9 -36 2 -23 24 29 12 28 24 50 28 50 3 0 17
16 30 35 13 19 27 35 31 35 11 0 40 -88 40 -122 0 -26 2 -27 33 -22 17 3 38 7
45 10 6 2 12 -1 12 -6 0 -22 19 -8 29 21 23 65 10 142 -30 185 -14 15 -17 24
-9 29 12 8 42 -13 35 -25 -3 -4 27 -8 66 -9 47 -1 68 3 64 10 -4 6 -13 8 -21
5 -8 -3 -11 0 -8 8 3 8 -5 21 -18 30 -12 9 -18 16 -13 16 32 -1 117 -120 129
-180 16 -78 27 -102 42 -89 7 6 20 9 28 6 8 -3 95 -7 193 -8 167 -1 181 -3
221 -25 23 -13 42 -21 42 -18 0 4 6 1 14 -5 7 -6 21 -9 30 -5 9 3 16 1 16 -5
0 -6 6 -9 13 -7 6 1 9 1 5 -1 -18 -10 -6 -24 15 -19 12 3 16 3 10 0 -19 -9
-16 -24 4 -17 9 4 14 2 11 -3 -3 -5 3 -22 13 -39 10 -16 28 -49 40 -73 12 -23
23 -41 26 -39 2 3 -262 668 -586 1478 l-590 1474 -43 3 c-68 4 -253 30 -374
51 -131 24 -310 33 -411 21z m1032 -2520 c3 -5 1 -10 -4 -10 -6 0 -11 5 -11
10 0 6 2 10 4 10 3 0 8 -4 11 -10z m-5995 -14 c-7 -7 -14 -6 -21 1 -9 9 -7 12
9 10 14 -1 18 -5 12 -11z m115 -6 c16 -17 16 -20 3 -15 -9 4 -19 13 -22 21 -7
19 -2 18 19 -6z m5997 3 c-6 -2 -9 -10 -6 -15 4 -7 2 -8 -5 -4 -13 9 -5 26 12
25 9 0 8 -2 -1 -6z m-4862 -499 c0 -8 -19 -13 -24 -6 -3 5 1 9 9 9 8 0 15 -2
15 -3z"/>
<path d="M2645 5080 c-3 -5 1 -10 9 -10 9 0 16 5 16 10 0 6 -4 10 -9 10 -6 0
-13 -4 -16 -10z"/>
<path d="M3146 3187 c3 -10 9 -15 12 -12 3 3 0 11 -7 18 -10 9 -11 8 -5 -6z"/>
<path d="M3181 3164 c0 -11 3 -14 6 -6 3 7 2 16 -1 19 -3 4 -6 -2 -5 -13z"/>
<path d="M4542 3033 c-34 -99 -142 -414 -207 -603 -23 -69 -85 -248 -136 -397
l-94 -273 -550 -2 c-327 -1 -505 -4 -440 -8 174 -12 163 -10 140 -20 -14 -6
-15 -9 -5 -10 50 -5 74 -10 83 -19 5 -5 23 -7 40 -4 20 4 28 3 23 -5 -7 -12
27 -18 159 -28 44 -3 87 -10 97 -15 9 -5 29 -9 45 -9 15 0 41 -7 57 -15 15 -8
42 -16 60 -16 l31 -2 -35 -7 c-28 -5 -31 -8 -17 -14 24 -11 21 -25 -8 -36 -14
-5 -25 -16 -25 -24 0 -8 -5 -16 -10 -18 -6 -1 39 -3 100 -2 60 1 110 -3 110
-7 0 -5 -516 -9 -1147 -10 -632 0 -1159 -2 -1173 -3 -14 -1 -89 -3 -167 -4
-141 -2 -143 -2 -143 -24 0 -19 2 -20 10 -8 7 11 10 12 10 2 0 -10 13 -13 48
-10 47 3 48 3 44 -24 -4 -24 -1 -28 19 -28 13 0 35 9 49 20 36 28 40 25 40
-22 0 -32 3 -39 10 -28 13 20 13 66 0 90 -9 17 -7 19 20 17 35 -2 50 -27 17
-28 -20 -1 -20 -1 3 -8 21 -6 26 -14 28 -49 3 -37 6 -42 28 -42 13 0 24 5 24
11 0 7 7 8 17 4 26 -9 174 -38 206 -39 9 0 17 -6 17 -13 0 -7 20 -14 48 -18
26 -3 78 -10 116 -16 50 -8 70 -8 75 0 8 12 232 -6 241 -20 8 -11 240 -15 240
-4 0 6 44 9 120 7 66 -2 120 -7 120 -11 0 -5 54 -8 120 -7 80 1 120 5 120 12
0 7 39 14 105 18 58 4 112 9 120 12 9 4 15 0 15 -10 0 -8 6 -13 13 -11 12 5
41 9 160 21 46 5 67 11 67 20 0 9 11 14 29 14 17 0 60 7 98 15 37 9 78 18 91
20 15 4 22 1 22 -10 0 -12 4 -13 18 -6 9 5 40 12 67 16 28 4 70 16 94 26 24
10 47 16 52 13 5 -3 9 9 9 25 l0 31 79 0 c68 0 79 2 77 17 -1 12 11 20 36 26
33 8 39 14 48 50 6 23 15 52 20 65 10 22 1 55 -17 64 -15 7 -158 160 -146 157
6 -2 50 -41 97 -87 47 -45 86 -80 86 -78 0 2 56 169 125 371 69 203 123 371
120 374 -3 3 -8 -5 -12 -17 -3 -12 -10 -22 -15 -22 -5 0 -6 -5 -3 -10 4 -6 0
-22 -9 -35 -9 -13 -16 -31 -16 -39 0 -19 -29 -48 -40 -41 -16 10 -29 -29 -15
-42 15 -14 25 -7 25 19 0 10 5 18 10 18 6 0 3 -16 -6 -37 -9 -21 -18 -43 -20
-48 -3 -6 -14 -11 -25 -12 -33 -3 -50 -23 -47 -59 1 -18 -1 -36 -5 -40 -4 -4
-7 6 -8 22 0 16 -3 23 -6 17 -3 -10 -8 -9 -20 3 -13 13 -14 31 -9 111 4 52 12
107 17 121 6 14 12 51 16 81 3 31 9 61 14 67 5 6 12 33 15 60 4 27 11 54 16
61 5 7 7 26 3 43 -4 16 -2 30 3 30 5 0 8 19 6 43 -2 29 -1 36 5 22 6 -13 9 4
10 54 1 40 6 81 11 91 5 9 6 20 3 24 -3 3 -1 6 4 6 6 0 14 18 18 40 4 22 18
70 31 106 13 37 24 69 24 72 0 2 44 2 98 -2 126 -8 131 -9 126 -18 -3 -4 11
-8 30 -8 20 0 36 -4 36 -9 0 -4 28 -11 62 -14 34 -3 64 -10 66 -16 2 -6 21
-11 42 -11 20 0 91 -9 156 -21 66 -11 125 -22 132 -23 7 -1 18 -8 24 -14 7 -7
19 -12 27 -12 10 0 8 -7 -9 -24 -13 -15 -20 -32 -17 -40 4 -9 1 -16 -6 -17
-66 -6 -187 -12 -362 -18 -138 -5 120 -8 755 -8 714 0 884 2 652 8 -173 4
-316 10 -320 13 -3 3 16 6 41 6 40 0 47 3 47 20 0 12 -7 20 -17 20 -14 0 -14
3 -5 12 10 10 15 10 22 -2 8 -12 17 -11 63 13 34 17 83 31 133 37 44 6 104 14
134 20 67 11 354 42 392 42 15 0 30 4 33 9 4 5 32 9 64 9 31 0 61 4 67 9 5 5
32 12 59 15 28 3 75 10 105 15 30 5 112 10 182 10 111 1 128 -1 138 -16 11
-17 11 -17 6 0 -3 10 -6 21 -6 23 0 2 -665 4 -1479 4 l-1478 0 -31 -87z m-62
-277 c0 -3 -4 -8 -10 -11 -5 -3 -10 -1 -10 4 0 6 5 11 10 11 6 0 10 -2 10 -4z
m-22 -92 c-4 -20 -21 -22 -26 -2 -2 9 0 8 8 -2 9 -12 11 -10 7 13 -3 19 -1 25
5 19 6 -6 8 -18 6 -28z m49 -456 c-3 -8 -6 -5 -6 6 -1 11 2 17 5 13 3 -3 4
-12 1 -19z m-47 -212 c0 -3 -4 -8 -10 -11 -5 -3 -10 -1 -10 4 0 6 5 11 10 11
6 0 10 -2 10 -4z m-34 -28 c5 -7 3 -8 -6 -3 -10 6 -12 2 -7 -15 4 -16 3 -20
-5 -12 -6 6 -8 18 -5 26 8 19 13 20 23 4z m-167 -262 c9 -10 8 -15 -2 -19 -8
-3 -13 3 -13 14 0 23 0 23 15 5z"/>
<path d="M9920 2925 c0 -5 5 -17 10 -25 5 -8 10 -10 10 -5 0 6 -5 17 -10 25
-5 8 -10 11 -10 5z"/>
<path d="M4503 2844 c-3 -8 -2 -19 3 -24 5 -5 10 1 10 16 2 27 -4 31 -13 8z"/>
<path d="M4707 2708 c-9 -24 -19 -56 -22 -73 -3 -16 6 1 19 40 14 38 24 70 22
72 -2 2 -10 -16 -19 -39z"/>
<path d="M2071 2723 c-1 -6 -4 -20 -7 -30 -5 -17 -5 -17 6 0 6 10 9 23 6 30
-3 9 -5 9 -5 0z"/>
<path d="M4656 2562 c-12 -20 -55 -147 -51 -151 8 -7 11 0 38 82 23 70 27 92
13 69z"/>
<path d="M7781 2555 c1 -19 18 -51 18 -35 0 8 -4 22 -9 30 -5 8 -9 11 -9 5z"/>
<path d="M4286 2485 c-9 -26 -7 -32 5 -12 6 10 9 21 6 23 -2 3 -7 -2 -11 -11z"/>
<path d="M10520 2497 c0 -3 14 -42 30 -88 24 -63 28 -85 19 -95 -10 -12 -8
-13 7 -7 17 6 18 5 4 -12 -14 -17 -13 -18 4 -12 16 6 17 5 6 -8 -7 -8 -9 -22
-6 -31 5 -13 4 -14 -7 -5 -11 8 -17 5 -27 -17 -7 -15 -12 -36 -11 -47 2 -17 0
-17 -8 -5 -7 10 -11 11 -11 3 0 -7 -9 -13 -19 -13 -11 0 -21 -5 -23 -12 -3 -8
-17 0 -39 20 -19 18 -40 30 -48 27 -11 -4 -11 -2 -2 9 10 11 7 17 -11 30 -12
9 -18 16 -13 16 6 0 2 5 -7 11 -11 6 -15 16 -11 26 5 12 3 14 -7 8 -10 -6 -12
-4 -7 8 3 10 3 17 -2 17 -7 0 -34 53 -36 70 -1 3 -13 28 -29 55 -36 66 -38 70
118 -323 75 -188 136 -347 136 -352 0 -7 -204 -10 -582 -11 -321 -1 -576 -3
-568 -5 8 -1 42 -6 74 -9 40 -5 55 -10 45 -16 -10 -6 -3 -9 21 -9 26 0 31 -3
20 -10 -11 -7 -7 -10 18 -10 18 0 31 -4 28 -9 -3 -5 21 -11 54 -15 54 -6 107
-17 245 -49 28 -7 59 -17 70 -24 19 -11 19 -12 -9 -38 -16 -15 -36 -28 -43
-29 -7 -1 -15 -6 -16 -11 -4 -16 68 -27 153 -23 47 3 96 1 110 -3 14 -4 -387
-8 -890 -9 -783 -2 -1513 -12 -1372 -18 30 -1 42 -6 42 -17 0 -10 -11 -15 -32
-16 -30 0 -31 -1 -10 -9 12 -5 22 -16 22 -25 0 -8 5 -15 10 -15 6 0 10 11 10
25 0 20 5 25 25 25 18 0 25 -5 25 -20 0 -13 11 -25 28 -33 15 -6 33 -18 40
-25 18 -17 80 -42 103 -42 13 0 19 -7 19 -24 0 -21 7 -25 63 -36 34 -6 76 -16
92 -20 75 -20 85 -21 85 -4 0 11 5 14 17 10 30 -12 97 -24 193 -35 177 -21
265 -35 270 -41 9 -12 240 -26 240 -15 0 13 233 7 241 -6 9 -15 239 -8 239 7
0 7 12 11 33 10 17 -1 71 0 120 3 65 5 87 3 87 -6 0 -7 6 -10 13 -8 6 2 59 9
117 15 58 6 107 15 108 20 2 6 53 10 123 10 94 0 119 3 119 14 0 14 46 29 135
45 28 5 62 14 78 20 22 9 27 8 27 -4 0 -12 7 -14 28 -9 15 4 32 10 37 15 6 4
15 8 20 8 43 4 46 12 17 49 l-27 37 44 -38 c45 -37 74 -50 51 -22 -10 12 -10
15 2 15 8 0 19 -5 26 -12 9 -9 12 -8 12 6 0 12 5 16 16 12 13 -5 15 2 12 51
l-3 58 58 -3 c50 -3 57 -2 57 15 0 15 -2 16 -11 3 -8 -12 -9 -11 -7 5 3 13 10
19 22 17 26 -5 21 11 -64 218 -39 96 -128 314 -196 485 -116 287 -134 329
-134 312z m64 -316 c3 -5 -1 -11 -9 -14 -9 -4 -12 -1 -8 9 6 16 10 17 17 5z
m-134 -611 c47 -44 78 -80 69 -80 -17 0 -72 49 -133 118 -61 68 -28 48 64 -38z
m-217 -77 c-7 -2 -19 -2 -25 0 -7 3 -2 5 12 5 14 0 19 -2 13 -5z m80 0 c-7 -2
-19 -2 -25 0 -7 3 -2 5 12 5 14 0 19 -2 13 -5z"/>
<path d="M4466 2171 c-3 -5 1 -12 10 -15 20 -8 29 -1 19 13 -8 13 -22 14 -29
2z"/>
<path d="M1250 1579 c0 -5 5 -7 10 -4 6 3 10 8 10 11 0 2 -4 4 -10 4 -5 0 -10
-5 -10 -11z"/>
<path d="M8571 1196 c11 -9 69 -14 69 -6 0 6 -16 10 -37 10 -20 0 -34 -2 -32
-4z"/>
</g>
</svg>
